<?xml version="1.0" encoding="UTF-8" standalone="no"?>
<!-- Created with Inkscape (http://www.inkscape.org/) -->

<svg
   width="512"
   height="512"
   viewBox="0 0 512 512"
   version="1.1"
   id="svg1"
   xmlns="http://www.w3.org/2000/svg"
   xmlns:svg="http://www.w3.org/2000/svg">
  <defs
     id="defs1">
    <linearGradient
       id="swatch10">
      <stop
         style="stop-color:#73a4ff;stop-opacity:0.33149205;"
         offset="0"
         id="stop10" />
    </linearGradient>
  </defs>
  <g
     id="layer1">
    <g
       id="g10"
       transform="matrix(0.81,0,0,0.81,48.640038,52.344088)">
      <path
         id="rect8-5"
         style="fill:#ff8873;fill-opacity:1;stroke-width:0.875554"
         d="m 372.56645,44.435846 c 0.13991,0.408117 0.30771,0.805646 0.42239,1.222355 19.78673,73.779429 39.54325,147.568789 59.31843,221.351469 1.46893,4.7302 1.4792,9.93488 -0.24455,14.59914 -2.35071,6.68042 -8.07095,12.04083 -14.89264,13.94831 -19.61923,5.26742 -39.24157,10.52366 -58.86389,15.78002 -1.17388,1.11895 -2.45664,2.12394 -3.85687,2.95312 -0.0836,0.0483 -0.16728,0.0963 -0.25083,0.1446 l 131.0019,-0.001 c 11.08,0 19.9988,-8.91961 19.9988,-19.99961 l 5.4e-4,-230.001608 c 0,-11.08 -8.91961,-19.998796 -19.99961,-19.998796 z"
         transform="rotate(15)" />
      <path
         id="rect8-8"
         style="display:inline;fill:#73a4ff;fill-opacity:1;stroke-width:0.875554"
         d="m 186.00092,120.99929 c -9.34262,0 -17.127,6.35231 -19.34558,14.98361 7.23563,-1.93877 14.47086,-3.87859 21.70621,-5.81839 4.70241,-1.44782 9.87117,-1.43906 14.50376,0.27006 6.71028,2.36139 12.08623,8.122 13.97569,14.9812 19.78873,73.78087 39.54356,147.56968 59.31954,221.35416 1.46769,4.73069 1.47936,9.93845 -0.24595,14.60263 -1.32378,3.76701 -3.74158,7.08353 -6.80218,9.62818 h 56.88658 c 11.08,0 20.00145,-8.92145 20.00145,-20.00145 V 141.00074 c 0,-11.08 -8.92145,-20.00145 -20.00145,-20.00145 z" />
      <rect
         style="fill:#ffce73;fill-opacity:1;stroke-width:0.875554"
         id="rect8"
         width="180"
         height="270"
         x="-10.645265"
         y="176.94931"
         ry="20"
         rx="20"
         transform="rotate(-15)" />
    </g>
  </g>
</svg>
